<svg xmlns="http://www.w3.org/2000/svg" version="1.1" xmlns:xlink="http://www.w3.org/1999/xlink" xmlns:svgjs="http://svgjs.com/svgjs" width="1440" height="560" preserveAspectRatio="none" viewBox="0 0 1440 560"><g mask="url(&quot;#SvgjsMask1101&quot;)" fill="none"><rect width="1440" height="560" x="0" y="0" fill="rgba(37, 4, 72, 1)"></rect><path d="M0,564.739C103.58,552.983,182.889,477.397,270.75,421.295C358.898,365.009,473.752,331.316,515.641,235.485C557.444,139.851,495.489,34.091,485.412,-69.792C474.717,-180.042,515.489,-301.379,454.587,-393.902C392.126,-488.793,276.429,-542.575,163.908,-558.218C57.887,-572.957,-43.133,-522.251,-139.928,-476.551C-224.411,-436.665,-290.366,-374.417,-359.197,-311.246C-437.255,-239.607,-544.774,-184.867,-569.896,-81.939C-595.383,22.485,-533.899,125.658,-489.753,223.663C-445.396,322.137,-401.981,425.864,-313.353,487.587C-223.255,550.333,-109.094,577.121,0,564.739" fill="#1e033a"></path><path d="M1440 971.26C1515.423 958.5419999999999 1581.791 922.059 1645.026 879.027 1706.782 837.002 1759.8899999999999 787.096 1801.6480000000001 725.159 1849.976 653.476 1903.778 579.555 1905.205 493.11400000000003 1906.726 400.981 1862.873 314.916 1809.664 239.685 1752.434 158.76999999999998 1685.147 76.868 1590.35 47.952999999999975 1495.231 18.940000000000055 1386.487 34.668000000000006 1300.331 84.33100000000002 1220.93 130.10000000000002 1201.018 231.86599999999999 1145.199 304.554 1093.726 371.58299999999997 1017.113 416.337 985.2629999999999 494.619 947.934 586.369 910.941 692.741 950.274 783.65 989.677 874.719 1092.475 921.078 1185.136 956.576 1266.243 987.6469999999999 1354.354 985.702 1440 971.26" fill="#2c0556"></path></g><defs><mask id="SvgjsMask1101"><rect width="1440" height="560" fill="#ffffff"></rect></mask></defs></svg>